# xmcd
#
# Track frame offsets: 
#        150
#        14478
#        27437
#        40508
#        54097
#        66523
#        80157
#        91478
#        103575
#        119212
#        132132
#        144373
#        155557
#        173402
#        184902
#        197960
#        209912
#        221162
#        232015
#        243653
#        259349
#        274645
#        287367
#        299445
#        310448
#        324502
#
# Disc length: 4454 seconds
#
# Revision: 0
# Processed by: cddbd v1.5.2PL0 Copyright (c) Steve Scherf et al.
# Submitted via: ExactAudioCopy v0.99pb5
#
DISCID=9a11641a
DTITLE=Various Artist - Hollywood Blues - CD1
DYEAR=1953
DGENRE=Blues
TTITLE0=Soldier Boy Houston - Far East Blues (1953)
TTITLE1=Soldier Boy Houston - Soldier Boy Houston Blues (1953)
TTITLE2=Sonny Boy Johnson - Quinsella (1947)
TTITLE3=Mac Willis - Pretty Woman (1951)
TTITLE4=Sonny Boy Holmes - I Got Them Blues (1952)
TTITLE5=Big Son Tillis - When I Get In This House Woman (1953)
TTITLE6=James Tisdom - Model T Boogie (1949-50)
TTITLE7=Sidney Maiden - Hurry Hurry Baby (1952)
TTITLE8=Charles Lacy /Rampart Street Blues Part 1 (1953)
TTITLE9=Beverly Scott - Shakin' The Boogie (1948)
TTITLE10=Black Diamon - T.P. Railer (1948)
TTITLE11=John Hogg - Black Snake Blues (1951)
TTITLE12=Little Son Willis - Skin And Bone (1952)
TTITLE13=James 'Little' Houston - New Orleans Blues Take 1 (1953)
TTITLE14=Ira Taylor - Little Machine (1953)
TTITLE15=Sonny Boy Holmes - T-N-T Woman (1952)
TTITLE16=Soldier Boy Houston - Leavin' Korea (1953)
TTITLE17=Soldier Boy Houston - Hollywood Blues (1953)
TTITLE18=Big Son Tillis - I'm Going Upstairs (1953)
TTITLE19=R.Green and Turner - Alla Blues (1948)
TTITLE20=James Tisdom - Last Affair Blues (1949-50)
TTITLE21=Ernest McClay - Night Working Woman (1948)
TTITLE22=Sonny Boy Johnson - I'm Drinking My Last Drink (1948)
TTITLE23=Beverly Scott - Southern California Blues (1948)
TTITLE24=Slim Green - Tricky Woman Blues (1948)
TTITLE25=Soldier Boy Houston - OLd Hen (1953)
EXTD=
EXTT0=
EXTT1=
EXTT2=
EXTT3=
EXTT4=
EXTT5=
EXTT6=
EXTT7=
EXTT8=
EXTT9=
EXTT10=
EXTT11=
EXTT12=
EXTT13=
EXTT14=
EXTT15=
EXTT16=
EXTT17=
EXTT18=
EXTT19=
EXTT20=
EXTT21=
EXTT22=
EXTT23=
EXTT24=
EXTT25=
PLAYORDER=
